# xmcd CD database file
#
# Track frame offsets:
#	150
#	19050
#	37490
#	54215
#
# Disc length: 977 seconds
#
# Revision: 0
# Processed by: cddbd v1.5.1PL2 Copyright (c) Steve Scherf et al.
# Submitted via: CDex 1.51
#
DISCID=2e03cf04
DTITLE=K Dub Shine - 天国と地獄
DYEAR=1900
DGENRE=Hip-Hop
TTITLE0=天国と地獄
TTITLE1=天国と地獄(LIFE REMIX)
TTITLE2=マジ興味ねぇ(REMIX)
TTITLE3=天国と地獄(BROOKLYN'S FINEST)
EXTD=
EXTT0=
EXTT1=
EXTT2=
EXTT3=
PLAYORDER=
